<svg width="22" height="17" viewBox="0 0 22 17" fill="none" xmlns="http://www.w3.org/2000/svg">
<path d="M2 2.0275H20V0H2C0.9 0 0 0.912375 0 2.0275V14.1925C0 15.3076 0.9 16.22 2 16.22H6V14.1925H2V2.0275ZM12 8.11H8V9.91447C7.39 10.472 7 11.2628 7 12.165C7 13.0672 7.39 13.858 8 14.4155V16.22H12V14.4155C12.61 13.858 13 13.0571 13 12.165C13 11.2729 12.61 10.472 12 9.91447V8.11ZM10 13.6856C9.17 13.6856 8.5 13.0064 8.5 12.165C8.5 11.3236 9.17 10.6444 10 10.6444C10.83 10.6444 11.5 11.3236 11.5 12.165C11.5 13.0064 10.83 13.6856 10 13.6856ZM21 4.055H15C14.5 4.055 14 4.56187 14 5.06875V15.2062C14 15.7131 14.5 16.22 15 16.22H21C21.5 16.22 22 15.7131 22 15.2062V5.06875C22 4.56187 21.5 4.055 21 4.055ZM20 14.1925H16V6.0825H20V14.1925Z" fill="black"/>
</svg>
