<svg width="21" height="21" viewBox="0 0 21 21" fill="none" xmlns="http://www.w3.org/2000/svg">
<path d="M15.9026 9.40438C15.4548 9.8522 14.8552 10.0121 14.1035 9.88418C13.3519 9.75623 12.6643 9.38038 12.0406 8.75663C11.4169 8.13288 11.0411 7.44514 10.9132 6.69342C10.7853 5.9417 10.9452 5.34193 11.393 4.8941L11.381 4.88211L3.63301 12.6311C3.33717 12.927 3.03133 13.3169 2.7155 13.8007C2.39967 14.2845 2.16179 14.7183 2.00187 15.1022L0.106871 19.8524C0.0509048 19.9963 0.0169194 20.1282 0.00491418 20.2482C-0.00709099 20.3682 0.00289997 20.4681 0.0348873 20.5481C0.0668747 20.6281 0.120842 20.69 0.196791 20.734C0.272739 20.778 0.36269 20.8 0.466645 20.8C0.610565 20.8 0.770478 20.764 0.946385 20.692L5.69589 18.7968C5.95176 18.6928 6.23561 18.5509 6.54744 18.3709C6.85927 18.191 7.15912 17.9931 7.44697 17.7772C7.73483 17.5613 7.9747 17.3573 8.16659 17.1654L15.9145 9.41637L15.9026 9.40438H15.9026ZM1.5821 19.2166L3.05734 15.522C3.18527 15.2102 3.38716 14.8443 3.66301 14.4245C3.93886 14.0046 4.19673 13.6747 4.43661 13.4348L5.18021 12.6911C5.34812 13.3789 5.70594 13.9966 6.25365 14.5444C6.80137 15.0922 7.41905 15.4501 8.10669 15.618L7.36309 16.3617C7.12321 16.6017 6.79339 16.8596 6.37362 17.1354C5.95385 17.4113 5.58804 17.6133 5.27619 17.7412L1.58213 19.2166L1.5821 19.2166ZM19.6326 1.16355C19.2568 0.787693 18.847 0.499807 18.4033 0.299894C17.9595 0.0999804 17.5297 1.58611e-05 17.114 0C16.5622 0 16.1145 0.171934 15.7706 0.515803L15.7587 0.503812L13.0001 3.26276V3.27475C12.5603 3.72257 12.4044 4.32234 12.5323 5.07406C12.6603 5.82579 13.0361 6.51352 13.6597 7.13727C14.2834 7.76103 14.9711 8.13688 15.7227 8.26483C16.4743 8.39278 17.074 8.23285 17.5217 7.78503L17.5337 7.79702L20.2923 5.03807L20.2803 5.02608C20.4242 4.88214 20.5401 4.7122 20.6281 4.51627C20.7161 4.32034 20.77 4.11642 20.79 3.90452C20.81 3.69261 20.8 3.4687 20.76 3.23278C20.7201 2.99687 20.6521 2.76096 20.5561 2.52505C20.4602 2.28915 20.3322 2.05524 20.1723 1.82332C20.0124 1.5914 19.8325 1.37148 19.6326 1.16358V1.16355ZM17.114 0.755717C17.3299 0.755717 17.5537 0.793705 17.7856 0.869679C18.0175 0.945654 18.2454 1.05361 18.4693 1.19355C18.6932 1.3335 18.9011 1.50343 19.0929 1.70336C19.6047 2.20717 19.9125 2.75896 20.0165 3.35874C20.0245 3.43871 20.0304 3.52068 20.0344 3.60465C20.0384 3.68861 20.0344 3.78457 20.0225 3.89252C20.0105 4.00048 19.9825 4.10644 19.9385 4.2104C19.8945 4.31437 19.8326 4.40634 19.7526 4.48629C19.5607 4.67821 19.2888 4.77417 18.937 4.77417C18.6172 4.77417 18.2814 4.6922 17.9295 4.52826C17.5777 4.36432 17.2539 4.13441 16.958 3.83852C16.6542 3.53463 16.4183 3.20077 16.2504 2.83691C16.0825 2.47306 16.0025 2.13119 16.0105 1.8113C16.0185 1.49142 16.1185 1.23552 16.3104 1.0436C16.5023 0.851677 16.7701 0.755717 17.114 0.755717H17.114Z" fill="black"/>
</svg>
