<svg width="14" height="14" viewBox="0 0 14 14" fill="none" xmlns="http://www.w3.org/2000/svg">
<path d="M9.66425 0C8.50454 0 7.39148 0.588409 6.665 1.51824C5.93851 0.588409 4.82546 0 3.66575 0C1.61293 0 0 1.75796 0 3.99537C0 6.74127 2.2661 8.97868 5.69857 12.3784L6.665 13.33L7.63142 12.3711C11.0639 8.97868 13.33 6.74127 13.33 3.99537C13.33 1.75796 11.7171 0 9.66425 0ZM6.73165 11.296L6.665 11.3686L6.59835 11.296C3.42581 8.16508 1.333 6.09475 1.333 3.99537C1.333 2.54251 2.33275 1.45286 3.66575 1.45286C4.69216 1.45286 5.69191 2.17203 6.04515 3.16724H7.29151C7.63809 2.17203 8.63784 1.45286 9.66425 1.45286C10.9972 1.45286 11.997 2.54251 11.997 3.99537C11.997 6.09475 9.90419 8.16508 6.73165 11.296Z" fill="black"/>
</svg>
