<svg width="21" height="21" viewBox="0 0 21 21" fill="none" xmlns="http://www.w3.org/2000/svg">
<path d="M13.1279 19.2342V12.9709C13.1279 12.5401 12.9944 12.1714 12.7274 11.8649C12.4603 11.5583 12.1392 11.4051 11.7639 11.4051H9.03601C8.66074 11.4051 8.3396 11.5583 8.0726 11.8649C7.80559 12.1714 7.67208 12.5401 7.67207 12.9709V19.2342H3.5802V9.85164L2.21625 10.9701V19.2342C2.21625 19.665 2.34976 20.0337 2.61678 20.3402C2.8838 20.6467 3.20494 20.8 3.5802 20.8H17.2197C17.595 20.8 17.9162 20.6467 18.1832 20.3402C18.4502 20.0336 18.5837 19.665 18.5837 19.2342V10.9701L17.2197 9.85164V19.2342H13.1279ZM12.0021 0.55611C11.7062 0.315857 11.3652 0.152235 10.9791 0.0652435C10.593 -0.0217478 10.207 -0.0217478 9.82084 0.0652435C9.43473 0.152235 9.09375 0.315857 8.79789 0.55611L0.354359 7.47806C0.166722 7.63548 0.0530576 7.84673 0.013366 8.11183C-0.0263256 8.37693 0.0223836 8.61926 0.159493 8.83883C0.296603 9.05839 0.480626 9.19095 0.711561 9.2365C0.942497 9.28205 1.15539 9.22613 1.35024 9.06874L9.78295 2.1468C9.94171 2.02252 10.1474 1.96039 10.4 1.96039C10.6526 1.96039 10.8583 2.02252 11.017 2.1468L19.4497 9.06874C19.6013 9.19302 19.7673 9.25516 19.9477 9.25516C20.2436 9.25516 20.4745 9.11846 20.6405 8.84506C20.7776 8.62137 20.8263 8.37697 20.7866 8.11186C20.7469 7.84674 20.6333 7.63548 20.4456 7.47808L12.0021 0.556135L12.0021 0.55611Z" fill="black"/>
</svg>
