<svg width="131" height="40" viewBox="0 0 131 40" fill="none" xmlns="http://www.w3.org/2000/svg">
<path d="M0 19.9403C0 30.9254 8.90519 40 19.6852 40C30.4651 40 39.3703 30.9254 39.3703 19.9403C39.3703 8.95522 30.4651 0 19.6852 0C8.90519 0 0 8.95522 0 19.9403ZM26.9499 29.2537C22.3801 26.3881 16.5215 25.6716 9.7254 27.2239C8.08497 27.4627 7.85063 25.0746 9.25671 24.8358C16.7558 23.0448 23.0832 23.8806 28.2388 27.1045C29.5277 27.9403 28.2388 29.9701 26.9499 29.2537ZM28.9419 23.8806C23.6691 20.5373 15.5841 19.5821 9.37388 21.4925C7.38193 22.0896 6.67889 18.9851 8.55367 18.5075C15.7013 16.3582 24.4893 17.4328 30.5823 21.2537C32.2227 22.3284 30.5823 24.9552 28.9419 23.8806ZM8.43649 15.403C6.44454 16.1194 5.15563 12.6567 7.38193 11.8209C14.2952 9.67164 26.0125 10.0299 33.2773 14.4478C35.2692 15.5224 33.3945 18.8657 31.2853 17.6716C24.958 13.8507 14.4123 13.4925 8.43649 15.403ZM52.8453 26.2687C50.8533 26.2687 48.9785 25.5522 47.3381 23.8806C47.2209 23.8806 47.2209 24 47.2209 24L45.3462 26.2687C45.229 26.3881 45.229 26.5075 45.3462 26.6269C47.4553 28.5373 50.0331 29.4925 52.8453 29.4925C56.8292 29.4925 59.2898 27.2239 59.2898 23.8806C59.2898 21.0149 57.5322 19.4627 53.4311 18.3881C50.0331 17.5522 49.4472 16.9552 49.4472 15.7612C49.4472 14.5672 50.619 13.8507 52.1422 13.8507C53.6655 13.8507 55.0716 14.4478 56.712 15.6418C56.712 15.6418 56.8292 15.7612 56.9463 15.7612C57.0635 15.7612 57.0635 15.6418 57.0635 15.6418L58.7039 13.2537C58.8211 13.1343 58.8211 13.1343 58.7039 13.0149C56.8292 11.4627 54.6029 10.6269 52.1422 10.6269C48.5098 10.6269 45.932 12.8955 45.932 16.1194C45.932 19.5821 48.2755 20.6567 52.025 21.6119C55.3059 22.3284 55.7746 23.0448 55.7746 24.2388C55.7746 25.5522 54.6029 26.2687 52.8453 26.2687ZM63.9767 17.0746V15.5224C63.9767 15.403 63.8596 15.2836 63.7424 15.2836H60.6959C60.5787 15.2836 60.4615 15.403 60.4615 15.5224V33.0746C60.4615 33.194 60.5787 33.3134 60.6959 33.3134H63.7424C63.8596 33.3134 63.9767 33.194 63.9767 33.0746V27.5821C65.1485 28.8955 66.4374 29.4925 68.195 29.4925C71.3587 29.4925 74.5224 26.9851 74.5224 22.209C74.5224 17.4328 71.3587 15.0448 68.195 15.0448C66.4374 15.0448 65.1485 15.6418 63.9767 17.0746ZM67.492 26.3881C65.3828 26.3881 63.8596 24.597 63.8596 22.209C63.8596 19.8209 65.3828 18.1493 67.492 18.1493C69.6011 18.1493 71.0072 19.8209 71.0072 22.209C71.0072 24.597 69.6011 26.3881 67.492 26.3881ZM75.4597 22.3284C75.4597 26.3881 78.6234 29.4925 82.7245 29.4925C86.8256 29.4925 89.9893 26.2687 89.9893 22.209C89.9893 18.1493 86.9428 15.0448 82.8417 15.0448C78.7406 15.0448 75.4597 18.2687 75.4597 22.3284ZM78.975 22.209C78.975 19.8209 80.4982 18.1493 82.7245 18.1493C84.9508 18.1493 86.5912 19.9403 86.5912 22.3284C86.5912 24.7164 85.068 26.3881 82.8417 26.3881C80.6154 26.3881 78.975 24.597 78.975 22.209ZM95.3792 15.2836V11.8209C95.3792 11.7015 95.3792 11.5821 95.2621 11.5821H92.2156C92.0984 11.5821 91.9812 11.7015 91.9812 11.8209V15.2836H90.458C90.3408 15.2836 90.2236 15.403 90.2236 15.5224V18.1493C90.2236 18.2687 90.3408 18.3881 90.458 18.3881H91.9812V25.3134C91.9812 28.0597 93.2701 29.4925 95.9651 29.4925C97.0197 29.4925 98.0742 29.2537 98.8945 28.7761C99.0116 28.7761 99.0116 28.6567 99.0116 28.5373V26.0299C99.0116 25.9104 99.0116 25.791 98.8945 25.791H98.6601C98.0742 26.1493 97.3712 26.2687 96.7853 26.2687C95.8479 26.2687 95.3792 25.791 95.3792 24.8358V18.3881H98.8945C99.0116 18.3881 99.1288 18.2687 99.1288 18.1493V15.5224C99.1288 15.403 99.0116 15.2836 98.8945 15.2836H95.3792ZM110.495 14.9254C110.495 13.6119 110.963 13.1343 112.018 13.1343C112.604 13.1343 113.19 13.1343 113.775 13.3731H113.893C113.893 13.3731 114.01 13.2537 114.01 13.1343V10.6269C114.01 10.5075 114.01 10.3881 113.893 10.3881C113.307 10.1493 112.487 10.0299 111.315 10.0299C108.503 10.0299 107.097 11.7015 107.097 14.6866V15.2836H105.573C105.456 15.2836 105.339 15.403 105.339 15.5224V18.1493C105.339 18.2687 105.456 18.3881 105.573 18.3881H107.097V29.0149C107.097 29.1343 107.214 29.2537 107.331 29.2537H110.377C110.495 29.2537 110.495 29.1343 110.495 29.0149V18.3881H113.424L117.759 29.0149C117.291 30.0896 116.822 30.3284 116.119 30.3284C115.533 30.3284 114.947 30.209 114.361 29.8507H114.244L114.127 29.9701L113.072 32.2388C113.072 32.3582 113.072 32.597 113.19 32.597C114.244 33.194 115.182 33.4328 116.353 33.4328C118.58 33.4328 119.869 32.3582 120.923 29.4925L126.196 15.6418V15.403C126.196 15.2836 126.079 15.2836 125.962 15.2836H122.798C122.681 15.2836 122.681 15.403 122.681 15.5224L119.4 24.8358L115.885 15.5224C115.885 15.403 115.767 15.2836 115.65 15.2836H110.495V14.9254ZM100.769 15.2836C100.652 15.2836 100.535 15.403 100.535 15.5224V29.0149C100.535 29.1343 100.652 29.2537 100.769 29.2537H103.816C103.933 29.2537 103.933 29.1343 103.933 29.0149V15.5224C103.933 15.403 103.933 15.2836 103.816 15.2836H100.769ZM100.066 11.3433C100.066 12.5373 101.121 13.6119 102.292 13.6119C103.464 13.6119 104.402 12.5373 104.402 11.3433C104.402 10.1493 103.464 9.19403 102.292 9.19403C101.121 9.19403 100.066 10.1493 100.066 11.3433ZM128.774 19.5821C129.945 19.5821 131 18.6269 131 17.4328C131 16.2388 129.945 15.2836 128.774 15.2836C127.602 15.2836 126.665 16.2388 126.665 17.4328C126.665 18.6269 127.602 19.5821 128.774 19.5821ZM128.774 15.5224C129.828 15.5224 130.766 16.3582 130.766 17.4328C130.766 18.5075 129.828 19.3433 128.774 19.3433C127.719 19.3433 126.899 18.5075 126.899 17.4328C126.899 16.3582 127.719 15.5224 128.774 15.5224ZM129.242 17.6716C129.594 17.5522 129.828 17.3134 129.828 16.9552C129.828 16.4776 129.36 16.2388 128.891 16.2388H127.953V18.5075H128.422V17.791H128.891L129.36 18.5075H129.945L129.242 17.6716ZM128.891 16.597C129.125 16.597 129.36 16.7164 129.36 16.9552C129.36 17.194 129.125 17.3134 128.891 17.3134H128.422V16.597H128.891Z" fill="white"/>
</svg>
