<svg width="14" height="14" viewBox="0 0 14 14" fill="none" xmlns="http://www.w3.org/2000/svg">
<path d="M12.2725 1.30451C11.5825 0.463301 10.6357 0 9.60626 0C8.8368 0 8.13212 0.273431 7.51175 0.812635C7.19872 1.08481 6.91508 1.4178 6.665 1.80645C6.41502 1.41791 6.13128 1.08481 5.81815 0.812635C5.19788 0.273431 4.4932 0 3.72374 0C2.69433 0 1.74741 0.463301 1.05737 1.30451C0.375577 2.1359 0 3.27169 0 4.50281C0 5.76995 0.420122 6.92986 1.3221 8.15321C2.12898 9.24751 3.28867 10.3584 4.63161 11.6447C5.09018 12.084 5.60997 12.582 6.14969 13.1124C6.29227 13.2527 6.47523 13.33 6.665 13.33C6.85467 13.33 7.03773 13.2527 7.18011 13.1126C7.71983 12.5821 8.23992 12.0839 8.69869 11.6444C10.0414 10.3583 11.2011 9.24751 12.008 8.1531C12.91 6.92986 13.33 5.76995 13.33 4.5027C13.33 3.27169 12.9544 2.1359 12.2725 1.30451Z" fill="#FFF"/>
</svg>
