<svg width="24" height="24" viewBox="0 0 24 24" fill="none" xmlns="http://www.w3.org/2000/svg">
<path d="M16.7381 16L21.1666 21.1905L19.6428 22.4881L15.2262 17.3096C13.7976 18.2619 12.2222 18.7381 10.5 18.7381C9.34914 18.7381 8.24795 18.5139 7.19639 18.0655C6.14483 17.6171 5.24006 17.0139 4.48209 16.256C3.72413 15.4981 3.12095 14.5933 2.67258 13.5417C2.2242 12.4901 2 11.3889 1.99997 10.2381C1.99994 9.08736 2.22414 7.98618 2.67258 6.93458C3.12102 5.88299 3.72419 4.97822 4.48209 4.22028C5.24 3.46235 6.14477 2.85917 7.19639 2.41077C8.24802 1.96236 9.3492 1.73816 10.5 1.73816C11.6507 1.73816 12.7519 1.96236 13.8035 2.41077C14.8551 2.85917 15.7599 3.46235 16.5178 4.22028C17.2757 4.97822 17.8789 5.88299 18.3273 6.93458C18.7758 7.98618 19 9.08736 18.9999 10.2381C18.9999 10.9683 18.9087 11.6826 18.7261 12.381C18.5436 13.0794 18.2837 13.7302 17.9464 14.3334C17.6091 14.9366 17.2063 15.4921 16.738 16H16.7381ZM10.5 16.7381C11.3809 16.7381 12.2222 16.5654 13.0238 16.2202C13.8254 15.8749 14.5159 15.4126 15.0952 14.8333C15.6745 14.254 16.1368 13.5635 16.4821 12.7619C16.8273 11.9603 17 11.119 17 10.2381C17 9.35716 16.8273 8.51589 16.4821 7.7143C16.1368 6.91271 15.6745 6.22222 15.0952 5.64285C14.5159 5.06347 13.8254 4.60117 13.0238 4.25596C12.2222 3.91074 11.3809 3.73813 10.5 3.73813C9.61906 3.73813 8.7778 3.91074 7.9762 4.25596C7.17461 4.60117 6.48413 5.06349 5.90475 5.64289C5.32538 6.2223 4.86308 6.91277 4.51786 7.7143C4.17264 8.51583 4.00003 9.3571 4.00003 10.2381C4.00003 11.1191 4.17264 11.9604 4.51786 12.7619C4.86308 13.5634 5.32539 14.2539 5.9048 14.8333C6.4842 15.4127 7.17467 15.875 7.9762 16.2202C8.77773 16.5654 9.619 16.738 10.5 16.7381Z" fill="black"/>
</svg>
